<?xml version="1.0" encoding="UTF-8"?>
<svg id="Layer_1" data-name="Layer 1" xmlns="http://www.w3.org/2000/svg" viewBox="0 0 50 50">
  <defs>
    <style>
      .cls-1, .cls-2 {
        fill: #fff;
      }

      .cls-2 {
        fill-rule: evenodd;
      }
    </style>
  </defs>
  <g>
    <circle cx="25" cy="25" r="24"/>
    <path class="cls-1" d="m25,2c12.68,0,23,10.32,23,23s-10.32,23-23,23S2,37.68,2,25,12.32,2,25,2m0-2C11.19,0,0,11.19,0,25s11.19,25,25,25,25-11.19,25-25S38.81,0,25,0h0Z"/>
  </g>
  <g>
    <path class="cls-1" d="m29.59,24.51c0,2.44-1.98,4.43-4.43,4.43s-4.43-1.98-4.43-4.43,1.98-4.43,4.43-4.43c2.44,0,4.43,1.98,4.43,4.43h0Z"/>
    <path class="cls-2" d="m14.54,16.54c-1.96,0-3.54,1.59-3.54,3.54v10.63c0,1.96,1.59,3.54,3.54,3.54h21.25c1.96,0,3.54-1.59,3.54-3.54v-10.63c0-1.96-1.59-3.54-3.54-3.54h-2.08c-.94,0-1.84-.37-2.5-1.04l-1.47-1.47c-.66-.66-1.56-1.04-2.5-1.04h-4.15c-.94,0-1.84.37-2.5,1.04l-1.47,1.47c-.66.66-1.56,1.04-2.5,1.04h-2.08Zm.89,3.54c.49,0,.89-.4.89-.89,0-.49-.4-.89-.89-.89-.49,0-.89.4-.89.89h0c0,.49.4.88.89.89h0Zm15.94,4.43c0,3.42-2.78,6.2-6.2,6.2s-6.2-2.78-6.2-6.2,2.78-6.2,6.2-6.2c3.42,0,6.2,2.78,6.2,6.2h0Z"/>
  </g>
</svg>