<?xml version="1.0" encoding="UTF-8"?>
<svg id="Layer_1" data-name="Layer 1" xmlns="http://www.w3.org/2000/svg" viewBox="0 0 888.84 551.55">
  <defs>
    <style>
      .cls-1 {
        fill: #fff;
      }
    </style>
  </defs>
  <g>
    <path class="cls-1" d="m699.81,551.55h-281.65c-3,0-5.42-2.42-5.42-5.42v-205.82c0-3,2.42-5.42,5.42-5.42h281.65c3,0,5.42,2.42,5.42,5.42v205.82c0,2.98-2.44,5.42-5.42,5.42Zm-276.23-10.83h270.82v-194.99h-270.82v194.99Z"/>
    <path class="cls-1" d="m640.23,551.55c-1.37,0-2.78-.52-3.83-1.59l-147.54-147.54-66.6,76.84c-1.97,2.26-5.38,2.51-7.65.54-2.26-1.97-2.51-5.38-.54-7.65l70.41-81.24c.99-1.12,2.38-1.81,3.9-1.88,1.52-.04,2.96.52,4.01,1.59l151.65,151.65c2.13,2.13,2.13,5.56,0,7.65-1.03,1.08-2.44,1.62-3.81,1.62h0Z"/>
    <path class="cls-1" d="m699.81,481.14c-1.52,0-3.03-.63-4.08-1.88l-66.6-76.84-66.32,66.3c-2.13,2.13-5.56,2.13-7.65,0-2.13-2.13-2.13-5.56,0-7.65l70.41-70.41c1.07-1.07,2.53-1.64,4.01-1.59,1.52.04,2.91.72,3.9,1.88l70.41,81.24c1.97,2.26,1.72,5.69-.54,7.65-1.03.87-2.29,1.3-3.54,1.3h0Z"/>
    <path class="cls-1" d="m558.98,416.14c-11.93,0-21.67-9.73-21.67-21.67s9.73-21.67,21.67-21.67,21.67,9.73,21.67,21.67-9.73,21.67-21.67,21.67Zm0-32.5c-5.98,0-10.83,4.86-10.83,10.83s4.86,10.83,10.83,10.83,10.83-4.86,10.83-10.83-4.86-10.83-10.83-10.83Z"/>
  </g>
  <polygon class="cls-1" points="863.9 403.29 888.54 403.29 888.54 551.12 740.71 551.12 740.71 526.48 863.9 526.48 863.9 403.29"/>
  <polygon points="5 175.29 6 175.29 6 181.29 0 181.29 0 180.29 5 180.29 5 175.29"/>
  <polygon class="cls-1" points="735 183.93 863.2 183.93 863.2 312.12 888.84 312.12 888.84 158.29 735 158.29 735 183.93"/>
  <polygon class="cls-1" points="437.87 182.67 562.23 182.67 562.23 157.8 413 157.8 413 307.03 437.87 307.03 437.87 182.67"/>
</svg>